<svg width="29" height="29" viewBox="0 0 19 19" fill="none" xmlns="http://www.w3.org/2000/svg">
<path fill-rule="evenodd" clip-rule="evenodd" d="M17.2793 7.53036H10.6817V0.941295C10.6817 0.074676 9.97863 0 9.1109 0C8.24316 0 7.54005 0.074676 7.54005 0.941295V7.53036H0.942507C0.0747722 7.53036 0 8.23256 0 9.09918C0 9.9658 0.0747722 10.668 0.942507 10.668H7.54005V17.2571C7.54005 18.1237 8.24316 18.1984 9.1109 18.1984C9.97863 18.1984 10.6817 18.1237 10.6817 17.2571V10.668H17.2793C18.147 10.668 18.2218 9.9658 18.2218 9.09918C18.2218 8.23256 18.147 7.53036 17.2793 7.53036Z" fill="#444444"/>
</svg>
