<svg width="28" height="28" viewBox="0 0 249 473" fill="none" xmlns="http://www.w3.org/2000/svg">
<g clip-path="url(#clip0)">
<path d="M115.158 154.044C115.158 169.378 101.188 185.794 83.074 185.794V444.627C83.074 481.367 32.993 481.367 32.993 444.627V185.794C15.353 185.794 0 172.211 0 151.857V9.41902C0 -2.97997 17.92 -3.45897 17.92 9.89802V115.196H32.92V8.94001C32.92 -2.45598 50.17 -3.18798 50.17 9.41902V115.196H65.67V9.06501C65.67 -2.83397 82.42 -3.31298 82.42 9.54402V115.196H97.67V9.06501C97.67 -2.70897 115.167 -3.18798 115.167 9.54402L115.158 154.044Z" fill="#E5E5E5"/>
<path d="M248.746 42.524V444.501C248.746 480.434 198.569 479.902 198.569 444.501V285.006H171.85V42.524C171.85 -13.921 248.746 -13.921 248.746 42.524Z" fill="#E5E5E5"/>
</g>
<defs>
<clipPath id="clip0">
<rect width="248.746" height="472.182" fill="white"/>
</clipPath>
</defs>
</svg>
