<svg width="28 " height="28" viewBox="0 0 50 50" fill="none" xmlns="http://www.w3.org/2000/svg">
<mask id="path-1-outside-1" maskUnits="userSpaceOnUse" x="12" y="12" width="17" height="16" fill="black">
<rect fill="white" x="12" y="12" width="17" height="16"/>
<path fill-rule="evenodd" clip-rule="evenodd" d="M26.0092 23.2189C23.4179 23.6043 21.035 24.4859 18.9673 25.7635C15.9793 25.0389 14 22.7328 14 20C14 16.6863 16.9101 14 21 14C24.0899 14 27 16.6863 27 20C27 21.1845 26.6282 22.2888 26.0092 23.2189Z"/>
</mask>
<path d="M18.9673 25.7635L18.496 27.7071L19.3078 27.904L20.0185 27.4649L18.9673 25.7635ZM26.0092 23.2189L26.3034 25.1972L27.1821 25.0665L27.6742 24.3269L26.0092 23.2189ZM20.0185 27.4649C21.8509 26.3327 23.9756 25.5434 26.3034 25.1972L25.715 21.2407C22.8603 21.6653 20.219 22.6391 17.916 24.062L20.0185 27.4649ZM12 20C12 23.8019 14.7611 26.8015 18.496 27.7071L19.4386 23.8198C17.1975 23.2764 16 21.6638 16 20H12ZM21 12C16.0614 12 12 15.3422 12 20H16C16 18.0304 17.7589 16 21 16V12ZM29 20C29 15.5341 25.1461 12 21 12V16C23.0336 16 25 17.8385 25 20H29ZM27.6742 24.3269C28.4931 23.0963 29 21.6109 29 20H25C25 20.7581 24.7632 21.4813 24.3442 22.1109L27.6742 24.3269Z" fill="#E8E8E8" mask="url(#path-1-outside-1)"/>
<path fill-rule="evenodd" clip-rule="evenodd" d="M20.1518 0C18.9765 0 18.0238 0.952724 18.0238 2.12797V4.25595C18.0238 5.43119 18.9765 6.38392 20.1518 6.38392C21.327 6.38392 22.2797 5.4312 22.2797 4.25595V2.12797C22.2797 0.952726 21.327 0 20.1518 0ZM33.6941 5.60942C32.8631 4.7784 31.5157 4.77839 30.6847 5.60942L29.18 7.11412C28.349 7.94515 28.349 9.29251 29.18 10.1235C30.011 10.9546 31.3584 10.9546 32.1894 10.1235L33.6941 8.61883C34.5251 7.7878 34.5251 6.44044 33.6941 5.60942ZM37.1755 17.0238C38.3508 17.0238 39.3035 17.9765 39.3035 19.1518C39.3035 20.327 38.3508 21.2797 37.1755 21.2797H35.0476C33.8723 21.2797 32.9196 20.327 32.9196 19.1518C32.9196 17.9765 33.8723 17.0238 35.0476 17.0238H37.1755ZM6.60942 32.6941C7.44045 33.5251 8.7878 33.5251 9.61883 32.6941L11.1235 31.1894C11.9546 30.3584 11.9546 29.011 11.1235 28.18C10.2925 27.349 8.94515 27.349 8.11413 28.18L6.60942 29.6847C5.7784 30.5157 5.7784 31.8631 6.60942 32.6941ZM3.12797 21.2797C1.95272 21.2797 1 20.327 1 19.1518C1 17.9765 1.95273 17.0238 3.12797 17.0238H5.25595C6.4312 17.0238 7.38392 17.9765 7.38392 19.1518C7.38392 20.327 6.43119 21.2797 5.25595 21.2797H3.12797ZM6.60942 5.60942C5.7784 6.44045 5.77839 7.7878 6.60942 8.61883L8.11412 10.1235C8.94515 10.9546 10.2925 10.9546 11.1235 10.1235C11.9546 9.29251 11.9546 7.94515 11.1235 7.11413L9.61883 5.60942C8.7878 4.7784 7.44044 4.7784 6.60942 5.60942Z" fill="#DADADA" fill-opacity="0.61"/>
<mask id="path-4-inside-2" fill="white">
<path fill-rule="evenodd" clip-rule="evenodd" d="M40 50H27H13C9.13401 50 6 46.866 6 43C6 39.134 9.13401 36 13 36L13.0322 36.0001C13.5152 28.5432 19.381 23 27 23C32.4146 23 37.2768 26.6625 39.1656 32.0382C39.4404 32.0129 39.7187 32 40 32C44.9706 32 49 36.0294 49 41C49 45.6326 45.5 49.4476 41 49.9451V50H40Z"/>
</mask>
<path d="M13 36L13.0046 34H13V36ZM13.0322 36.0001L13.0276 38.0001C14.0838 38.0025 14.9597 37.1833 15.028 36.1294L13.0322 36.0001ZM39.1656 32.0382L37.2787 32.7012C37.5826 33.5661 38.4358 34.1137 39.3487 34.0298L39.1656 32.0382ZM41 49.9451L40.7802 47.9572C39.7669 48.0692 39 48.9255 39 49.9451H41ZM41 50V52C42.1046 52 43 51.1046 43 50H41ZM40 48H27V52H40V48ZM27 48H13V52H27V48ZM13 48C10.2386 48 8 45.7614 8 43H4C4 47.9706 8.02944 52 13 52V48ZM8 43C8 40.2386 10.2386 38 13 38V34C8.02944 34 4 38.0294 4 43H8ZM12.9954 38L13.0276 38.0001L13.0368 34.0001L13.0046 34L12.9954 38ZM15.028 36.1294C15.4426 29.7293 20.4307 25 27 25V21C18.3312 21 11.5879 27.3571 11.0364 35.8708L15.028 36.1294ZM27 25C31.4873 25 35.6445 28.0499 37.2787 32.7012L41.0526 31.3752C38.9092 25.275 33.342 21 27 21V25ZM39.3487 34.0298C39.5627 34.0101 39.7799 34 40 34V30C39.6575 30 39.3181 30.0157 38.9826 30.0466L39.3487 34.0298ZM40 34C43.866 34 47 37.134 47 41H51C51 34.9249 46.0751 30 40 30V34ZM47 41C47 44.6018 44.2781 47.5705 40.7802 47.9572L41.2198 51.933C46.7218 51.3247 51 46.6634 51 41H47ZM39 49.9451V50H43V49.9451H39ZM41 48H40V52H41V48Z" fill="#E8E8E8" mask="url(#path-4-inside-2)"/>
</svg>
